<?xml version="1.0" encoding="utf-8"?>
<svg viewBox="0 0 500 500" width="100px" height="100px" xmlns="http://www.w3.org/2000/svg">
  <polyline style="fill: rgb(199, 199, 199);" points="179.843 318.202 313.984 318.778 314.419 384.215 180.279 383.639"/>
  <circle style="fill: rgb(199, 199, 199);" cx="247.194" cy="385.008" r="67.36" transform="matrix(1, 0, 0, 0.875037, 0, 46.773956)"/>
  <polyline style="fill: rgb(255, 208, 0);" points="137.486 215.867 180.696 288.819 315.376 288.258 360.27 219.795 138.047 215.867"/>
  <circle style="fill: rgb(255, 255, 255);" cx="220.1" cy="79.686" r="21.106"/>
  <circle style="fill: rgb(255, 255, 255);" cx="180.961" cy="120.386" r="21.857"/>
  <path style="fill: rgb(255, 255, 255);" d="M 209.315 61.167 C 186.09 74.081 170.406 89.821 162.268 108.384 C 156.375 121.825 167.094 131.712 194.427 138.048"/>
  <path style="fill: rgb(255, 255, 255);" d="M 202.019 125.702 C 205.573 113.169 213.991 104.378 227.272 99.327 C 232.981 97.156 229.052 92.48 215.487 85.297 C 202.031 78.172 192.865 90.331 187.99 121.773"/>
  <circle style="fill: rgb(255, 208, 0);" cx="250" cy="156.565" r="127.601"/>
</svg>